<?xml version="1.0" encoding="UTF-8" standalone="no"?>
<svg
   version="1.1"
   width="17.309999"
   height="20"
   viewBox="0 0 17.309999 20"
   id="svg4"
   sodipodi:docname="weather-sunny.svg"
   inkscape:version="1.1 (c68e22c387, 2021-05-23)"
   xmlns:inkscape="http://www.inkscape.org/namespaces/inkscape"
   xmlns:sodipodi="http://sodipodi.sourceforge.net/DTD/sodipodi-0.dtd"
   xmlns="http://www.w3.org/2000/svg"
   xmlns:svg="http://www.w3.org/2000/svg">
  <defs
     id="defs8" />
  <sodipodi:namedview
     id="namedview6"
     pagecolor="#ffffff"
     bordercolor="#666666"
     borderopacity="1.0"
     inkscape:pageshadow="2"
     inkscape:pageopacity="0.0"
     inkscape:pagecheckerboard="0"
     showgrid="false"
     fit-margin-top="0"
     fit-margin-left="0"
     fit-margin-right="0"
     fit-margin-bottom="0"
     inkscape:zoom="36.375"
     inkscape:cx="8.6735395"
     inkscape:cy="9.9931271"
     inkscape:window-width="3440"
     inkscape:window-height="1387"
     inkscape:window-x="2552"
     inkscape:window-y="-8"
     inkscape:window-maximized="1"
     inkscape:current-layer="svg4" />
  <path
     d="m 8.66,5 a 5,5 0 0 1 5,5 5,5 0 0 1 -5,5 5,5 0 0 1 -5,-5 5,5 0 0 1 5,-5 m 0,2 a 3,3 0 0 0 -3,3 3,3 0 0 0 3,3 3,3 0 0 0 3,-3 3,3 0 0 0 -3,-3 m 0,-7 2.39,3.42 C 10.31,3.15 9.5,3 8.66,3 7.82,3 7.01,3.15 6.27,3.42 L 8.66,0 M 0,5 4.16,4.65 C 3.56,5.16 3.02,5.78 2.6,6.5 2.16,7.24 1.91,8 1.77,8.79 L 0,5 m 0.02,10 1.76,-3.77 c 0.14,0.77 0.41,1.55 0.83,2.27 0.42,0.74 0.96,1.36 1.55,1.87 L 0.02,15 M 17.31,5 15.54,8.79 C 15.4,8 15.13,7.23 14.71,6.5 14.29,5.78 13.76,5.15 13.16,4.64 L 17.31,5 m -0.01,10 -4.14,0.36 c 0.59,-0.51 1.12,-1.14 1.54,-1.86 0.42,-0.73 0.69,-1.5 0.83,-2.29 L 17.3,15 M 8.66,20 6.25,16.56 C 6.99,16.83 7.8,17 8.66,17 c 0.82,0 1.63,-0.17 2.37,-0.44 z"
     id="path2" />
</svg>
