<?xml version="1.0" encoding="UTF-8" standalone="no"?>
<svg
   version="1.1"
   width="20"
   height="19.112499"
   viewBox="0 0 20 19.112499"
   id="svg4"
   sodipodi:docname="weather-sunset-up.svg"
   inkscape:version="1.1 (c68e22c387, 2021-05-23)"
   xmlns:inkscape="http://www.inkscape.org/namespaces/inkscape"
   xmlns:sodipodi="http://sodipodi.sourceforge.net/DTD/sodipodi-0.dtd"
   xmlns="http://www.w3.org/2000/svg"
   xmlns:svg="http://www.w3.org/2000/svg">
  <defs
     id="defs8" />
  <sodipodi:namedview
     id="namedview6"
     pagecolor="#ffffff"
     bordercolor="#666666"
     borderopacity="1.0"
     inkscape:pageshadow="2"
     inkscape:pageopacity="0.0"
     inkscape:pagecheckerboard="0"
     showgrid="false"
     fit-margin-top="0"
     fit-margin-left="0"
     fit-margin-right="0"
     fit-margin-bottom="0"
     inkscape:zoom="36.375"
     inkscape:cx="9.9931271"
     inkscape:cy="9.9931271"
     inkscape:window-width="3440"
     inkscape:window-height="1387"
     inkscape:window-x="2552"
     inkscape:window-y="-8"
     inkscape:window-maximized="1"
     inkscape:current-layer="svg4"
     scale-x="1" />
  <path
     d="m 1,10 h 4 a 5,5 0 0 1 5,-5 5,5 0 0 1 5,5 h 4 a 1,1 0 0 1 1,1 1,1 0 0 1 -1,1 H 1 A 1,1 0 0 1 0,11 1,1 0 0 1 1,10 m 12,0 A 3,3 0 0 0 10,7 3,3 0 0 0 7,10 h 6 M 10,0 12.39,3.42 C 11.65,3.15 10.84,3 10,3 9.16,3 8.35,3.15 7.61,3.42 L 10,0 M 1.34,5 5.5,4.65 C 4.9,5.16 4.36,5.78 3.94,6.5 3.5,7.24 3.25,8 3.11,8.79 L 1.34,5 M 18.65,5 16.88,8.79 C 16.74,8 16.47,7.23 16.05,6.5 15.63,5.78 15.1,5.15 14.5,4.64 L 18.65,5 m -7.94,9.3 3.11,3.11 c 0.39,0.39 0.39,1.02 0,1.41 -0.39,0.39 -1.02,0.39 -1.41,0 L 10,16.41 7.59,18.82 c -0.39,0.39 -1.02,0.39 -1.41,0 -0.39,-0.39 -0.39,-1.02 0,-1.41 L 9.29,14.3 C 9.5,14.1 9.74,14 10,14 c 0.26,0 0.5,0.1 0.71,0.3 z"
     id="path2" />
</svg>
