<?xml version="1.0" encoding="UTF-8" standalone="no"?>
<svg
   version="1.1"
   width="19.2425"
   height="21.0175"
   viewBox="0 0 19.2425 21.0175"
   id="svg4"
   sodipodi:docname="weather-night.svg"
   inkscape:version="1.1 (c68e22c387, 2021-05-23)"
   xmlns:inkscape="http://www.inkscape.org/namespaces/inkscape"
   xmlns:sodipodi="http://sodipodi.sourceforge.net/DTD/sodipodi-0.dtd"
   xmlns="http://www.w3.org/2000/svg"
   xmlns:svg="http://www.w3.org/2000/svg">
  <defs
     id="defs8" />
  <sodipodi:namedview
     id="namedview6"
     pagecolor="#ffffff"
     bordercolor="#666666"
     borderopacity="1.0"
     inkscape:pageshadow="2"
     inkscape:pageopacity="0.0"
     inkscape:pagecheckerboard="0"
     showgrid="false"
     fit-margin-top="0"
     fit-margin-left="0"
     fit-margin-right="0"
     fit-margin-bottom="0"
     inkscape:zoom="36.375"
     inkscape:cx="9.9931271"
     inkscape:cy="11.010309"
     inkscape:window-width="3440"
     inkscape:window-height="1387"
     inkscape:window-x="2552"
     inkscape:window-y="-8"
     inkscape:window-maximized="1"
     inkscape:current-layer="svg4" />
  <path
     d="m 15.7425,3.09 -2.53,1.94 0.91,3.06 -2.63,-1.81 -2.63,1.81 0.91,-3.06 -2.53,-1.94 3.19,-0.09 1.06,-3 1.06,3 3.19,0.09 m 3.5,6.91 -1.64,1.25 0.59,1.98 -1.7,-1.17 -1.7,1.17 0.59,-1.98 -1.64,-1.25 2.06,-0.05 0.69,-1.95 0.69,1.95 2.06,0.05 m -2.28,4.95 c 0.83,-0.08 1.72,1.1 1.19,1.85 -0.32,0.45 -0.66,0.87 -1.08,1.27 -3.91,3.93 -10.24,3.93 -14.14,0 -3.91,-3.9 -3.91,-10.24 0,-14.14 0.4,-0.4 0.82,-0.76 1.27,-1.08 0.75,-0.53 1.93,0.36 1.85,1.19 -0.27,2.86 0.69,5.83 2.89,8.02 2.19,2.2 5.15,3.16 8.02,2.89 m -1.64,2.02 c -2.83,-0.16 -5.63,-1.33 -7.8,-3.47 -2.17,-2.19 -3.33,-5 -3.49,-7.82 -2.81,3.14 -2.7,7.96 0.31,10.98 3.02,3.01 7.84,3.12 10.98,0.31 z"
     id="path2" />
</svg>
